<svg viewBox="0 0 1229 1024" version="1.1" xmlns="http://www.w3.org/2000/svg" fill="white"><path d="M844.61568 500.48c-4.16768 0-14.7456 1.4336-25.62048 4.8128-2.77504-36.99712-33.78176-66.2528-71.4752-66.2528-16.96768 0-32.58368 5.92896-44.87168 15.8208-9.08288-27.72992-33.09568-46.5408-62.83264-46.5408-19.69152 0-37.21216 8.09984-49.70496 21.32992l-0.68608-19.2c68.78208-31.54944 116.76672-100.84352 116.76672-181.32992 0-110.10048-89.57952-199.68-199.68-199.68s-199.68 89.57952-199.68 199.68c0 88.13568 57.47712 162.88768 136.86784 189.2864l3.19488 149.21728c-8.27392 4.49536-20.82816 12.71808-36.89472 27.31008-55.59296 50.52416-73.78944 172.72832-11.008 267.3152 69.888 105.28768 151.77728 150.23104 273.83808 150.23104 129.32096 0 172.58496-64.90112 205.824-131.3792 31.96928-63.93856 32.33792-308.79744 32.33792-319.1808C911.0016 529.18272 879.98464 500.48 844.61568 500.48zM439.87968 239.68768l1.59744 74.65984c-25.72288-19.65056-42.47552-50.44224-42.47552-85.22752 0-59.2896 48.2304-107.52 107.52-107.52s107.52 48.2304 107.52 107.52c0 27.97568-10.89536 53.31968-28.49792 72.448l-2.22208-62.208c0-43.78624-30.83264-76.8-71.72096-76.8S439.87968 195.57376 439.87968 239.68768zM337.5616 229.12c0-93.16352 75.79648-168.96 168.96-168.96s168.96 75.79648 168.96 168.96c0 63.50848-35.29728 118.8352-87.25504 147.68128l-1.25952-35.3792c34.95936-25.10848 57.79456-66.07872 57.79456-112.31232 0-76.22656-62.01344-138.24-138.24-138.24s-138.24 62.01344-138.24 138.24c0 53.00224 30.08512 98.93888 73.99424 122.10176l0.72704 34.26304C381.24544 360.31488 337.5616 299.79648 337.5616 229.12zM851.17952 867.35872c-31.29344 62.58688-66.304 114.40128-178.33984 114.40128-111.98464 0-183.90016-39.54688-248.23808-136.4992-37.48864-56.48384-53.76-173.21984 6.07232-227.60448 6.46144-5.86752 12.16512-10.46528 16.9984-14.03904l2.29376 107.10016c0.18432 8.47872 6.99392 15.43168 15.68768 15.03232 8.47872-0.18432 15.2064-7.19872 15.03232-15.68768l-10.07616-470.70208c0-27.12576 16.85504-46.08 41.00096-46.08s41.00096 18.95424 41.0112 46.63296l10.24 286.72c0.27648 7.8848 6.48192 14.26432 14.336 14.77632 7.7824 0.48128 14.83776-4.99712 16.15872-12.76928l7.77216-46.08c0.14336-0.84992 0.21504-1.69984 0.21504-2.56 0-23.3472 16.54784-40.96 38.49216-40.96 24.75008 0 36.02432 21.22752 36.02432 40.96l0 30.72c0 8.48896 6.88128 15.36 15.36 15.36s15.36-6.88128 15.36-15.36c0-22.58944 18.37056-40.96 40.96-40.96s40.96 18.37056 40.96 40.96l0 66.56c0 8.47872 6.88128 15.36 15.36 15.36s15.36-6.88128 15.36-15.36l0-39.1168c6.144-2.99008 18.18624-6.9632 25.41568-6.9632 18.3296 0 35.65568 14.91968 35.65568 30.72C880.2816 630.69184 875.03872 819.64032 851.17952 867.35872z"/></svg>