<?xml version="1.0" encoding="utf-8"?>
<svg fill="#000000" xmlns="http://www.w3.org/2000/svg">

<symbol id="info" viewBox="0 0 24 24">
	<path d="M12,2A10,10,0,1,0,22,12,10.01114,10.01114,0,0,0,12,2Zm0,18a8,8,0,1,1,8-8A8.00917,8.00917,0,0,1,12,20Zm0-8.5a1,1,0,0,0-1,1v3a1,1,0,0,0,2,0v-3A1,1,0,0,0,12,11.5Zm0-4a1.25,1.25,0,1,0,1.25,1.25A1.25,1.25,0,0,0,12,7.5Z"/>
</symbol>

<symbol id="clock" viewBox="0 0 24 24">
	<path d="M15.09814,12.63379,13,11.42285V7a1,1,0,0,0-2,0v5a.99985.99985,0,0,0,.5.86621l2.59814,1.5a1.00016,1.00016,0,1,0,1-1.73242ZM12,2A10,10,0,1,0,22,12,10.01114,10.01114,0,0,0,12,2Zm0,18a8,8,0,1,1,8-8A8.00917,8.00917,0,0,1,12,20Z"/>
</symbol>

<symbol id="check" viewBox="0 0 24 24">
	<path d="M14.72,8.79l-4.29,4.3L8.78,11.44a1,1,0,1,0-1.41,1.41l2.35,2.36a1,1,0,0,0,.71.29,1,1,0,0,0,.7-.29l5-5a1,1,0,0,0,0-1.42A1,1,0,0,0,14.72,8.79ZM12,2A10,10,0,1,0,22,12,10,10,0,0,0,12,2Zm0,18a8,8,0,1,1,8-8A8,8,0,0,1,12,20Z"/>
</symbol>

<symbol id="star" viewBox="0 0 24 24">
	<path d="M22,9.67A1,1,0,0,0,21.14,9l-5.69-.83L12.9,3a1,1,0,0,0-1.8,0L8.55,8.16,2.86,9a1,1,0,0,0-.81.68,1,1,0,0,0,.25,1l4.13,4-1,5.68a1,1,0,0,0,.4,1,1,1,0,0,0,1.05.07L12,18.76l5.1,2.68a.93.93,0,0,0,.46.12,1,1,0,0,0,.59-.19,1,1,0,0,0,.4-1l-1-5.68,4.13-4A1,1,0,0,0,22,9.67Zm-6.15,4a1,1,0,0,0-.29.89l.72,4.19-3.76-2a1,1,0,0,0-.94,0l-3.76,2,.72-4.19a1,1,0,0,0-.29-.89l-3-3,4.21-.61a1,1,0,0,0,.76-.55L12,5.7l1.88,3.82a1,1,0,0,0,.76.55l4.21.61Z"/>
</symbol>

<symbol id="list" viewBox="0 0 24 24">
	<path d="M21,20H4V18H7a1,1,0,0,0,0-2H4V14h7a1,1,0,0,0,0-2H4V10H15a1,1,0,0,0,0-2H4V6H19a1,1,0,0,0,0-2H4V3A1,1,0,0,0,2,3V21a1,1,0,0,0,1,1H21a1,1,0,0,0,0-2Z"/>
</symbol>

<symbol id="settings" viewBox="0 0 24 24">
	<path d="M21.32,9.55l-1.89-.63.89-1.78A1,1,0,0,0,20.13,6L18,3.87a1,1,0,0,0-1.15-.19l-1.78.89-.63-1.89A1,1,0,0,0,13.5,2h-3a1,1,0,0,0-.95.68L8.92,4.57,7.14,3.68A1,1,0,0,0,6,3.87L3.87,6a1,1,0,0,0-.19,1.15l.89,1.78-1.89.63A1,1,0,0,0,2,10.5v3a1,1,0,0,0,.68.95l1.89.63-.89,1.78A1,1,0,0,0,3.87,18L6,20.13a1,1,0,0,0,1.15.19l1.78-.89.63,1.89a1,1,0,0,0,.95.68h3a1,1,0,0,0,.95-.68l.63-1.89,1.78.89A1,1,0,0,0,18,20.13L20.13,18a1,1,0,0,0,.19-1.15l-.89-1.78,1.89-.63A1,1,0,0,0,22,13.5v-3A1,1,0,0,0,21.32,9.55ZM20,12.78l-1.2.4A2,2,0,0,0,17.64,16l.57,1.14-1.1,1.1L16,17.64a2,2,0,0,0-2.79,1.16l-.4,1.2H11.22l-.4-1.2A2,2,0,0,0,8,17.64l-1.14.57-1.1-1.1L6.36,16A2,2,0,0,0,5.2,13.18L4,12.78V11.22l1.2-.4A2,2,0,0,0,6.36,8L5.79,6.89l1.1-1.1L8,6.36A2,2,0,0,0,10.82,5.2l.4-1.2h1.56l.4,1.2A2,2,0,0,0,16,6.36l1.14-.57,1.1,1.1L17.64,8a2,2,0,0,0,1.16,2.79l1.2.4ZM12,8a4,4,0,1,0,4,4A4,4,0,0,0,12,8Zm0,6a2,2,0,1,1,2-2A2,2,0,0,1,12,14Z"/>
</symbol>

<symbol id="playlist" viewBox="0 0 24 24">
	<polygon points="2 3 2 11 8 7 2 3"></polygon>
	<path d="M3 14.5H21a1 1 0 0 0 0-2H3a1 1 0 0 0 0 2zM10 7a1 1 0 0 0 1 1H21a1 1 0 0 0 0-2H11A1 1 0 0 0 10 7zM3 21H21a1 1 0 0 0 0-2H3a1 1 0 0 0 0 2z"/>
</symbol>

<symbol id="add-playlist" viewBox="0 0 24 24">
	<path fill="none" d="M0 0h48v48H0z"></path>
	<path d="M28 20H4v4h24v-4zm0-8H4v4h24v-4zm8 16v-8h-4v8h-8v4h8v8h4v-8h8v-4h-8zM4 32h16v-4H4v4z"></path>
</symbol>

<symbol id="advanced" viewBox="0 0 24 24">
	<path d="M19.75,14v8a.75.75,0,0,1-1.5,0V14a.75.75,0,0,1,1.5,0Zm0-9.674V2a.75.75,0,0,0-1.5,0V4.326a3.75,3.75,0,1,0,1.5,0ZM12,10.75a.75.75,0,0,0,.75-.75V2a.75.75,0,0,0-1.5,0v8A.75.75,0,0,0,12,10.75Zm0,1.5a3.75,3.75,0,0,0-.75,7.424V22a.75.75,0,0,0,1.5,0V19.674A3.75,3.75,0,0,0,12,12.25Zm-7,1a.75.75,0,0,0-.75.75v8a.75.75,0,0,0,1.5,0V14A.75.75,0,0,0,5,13.25Zm.75-8.924V2a.75.75,0,0,0-1.5,0V4.326a3.75,3.75,0,1,0,1.5,0Z"></path>
</symbol>

<symbol id="download" viewBox="0 0 24 24">
	<path fill="none" d="M0 0h24v24H0z"/>
	<path d="M13 10h5l-6 6-6-6h5V3h2v7zm-9 9h16v-7h2v8a1 1 0 0 1-1 1H3a1 1 0 0 1-1-1v-8h2v7z"/>
</symbol>

<symbol id="save" viewBox="0 0 48 48">
	<path d="M34,4H6A2,2,0,0,0,4,6V42a2,2,0,0,0,2,2H42a2,2,0,0,0,2-2V14ZM30,40H18V28H30Zm10,0H34V26a2,2,0,0,0-2-2H16a2,2,0,0,0-2,2V40H8V8H32.3L40,15.7Z"/>
	<path d="M28,12H16a2,2,0,0,0,0,4H28a2,2,0,0,0,0-4Z"/>
</symbol>

<symbol id="delete" viewBox="0 0 24 24">
	<path d="M6 7V18C6 19.1046 6.89543 20 8 20H16C17.1046 20 18 19.1046 18 18V7M6 7H5M6 7H8M18 7H19M18 7H16M10 11V16M14 11V16M8 7V5C8 3.89543 8.89543 3 10 3H14C15.1046 3 16 3.89543 16 5V7M8 7H16" stroke-width="2" stroke-linecap="round" stroke-linejoin="round"/>
</symbol>

<symbol id="trash" viewBox="0 0 48 48">
	<path d="M43,8.8a2.3,2.3,0,0,1-.6,1.6A1.7,1.7,0,0,1,41,11H29a2,2,0,0,1-2-2V7H21V9a2,2,0,0,1-2,2H7.1A2.1,2.1,0,0,1,5,9.2a2.3,2.3,0,0,1,.6-1.6A1.7,1.7,0,0,1,7,7H17V5a2,2,0,0,1,2-2H29a2,2,0,0,1,2,2V7h9.9A2.1,2.1,0,0,1,43,8.8Z"/>
	<path d="M34.8,16.8,32.4,41H15.6L13.2,16.8a2,2,0,0,0-2-1.8h0a2,2,0,0,0-2,2.2l2.6,26a2,2,0,0,0,2,1.8H34.2a2,2,0,0,0,2-1.8l2.6-26a2,2,0,0,0-2-2.2h0A2,2,0,0,0,34.8,16.8Z"/>
</symbol>

<symbol id="close" viewBox="0 0 48 48">
	<path d="M26.8,24l5.6-5.5a2.1,2.1,0,0,0,.2-2.7,1.9,1.9,0,0,0-3-.2L24,21.2l-5.6-5.6a1.9,1.9,0,0,0-3,.2,2.1,2.1,0,0,0,.2,2.7L21.2,24l-5.6,5.5a2.1,2.1,0,0,0-.2,2.7,1.9,1.9,0,0,0,3,.2L24,26.8l5.6,5.6a1.9,1.9,0,0,0,3-.2,2.1,2.1,0,0,0-.2-2.7Z"/>
	<path d="M40,8V40H8V8H40m2-4H6A2,2,0,0,0,4,6V42a2,2,0,0,0,2,2H42a2,2,0,0,0,2-2V6a2,2,0,0,0-2-2Z"/>
</symbol>

<symbol id="url" viewBox="0 0 24 24">
	<path fill="none" d="M0 0h24v24H0z"/>
	<path d="M10 6v2H5v11h11v-5h2v6a1 1 0 0 1-1 1H4a1 1 0 0 1-1-1V7a1 1 0 0 1 1-1h6zm11-3v8h-2V6.413l-7.793 7.794-1.414-1.414L17.585 5H13V3h8z"/>
</symbol>

<symbol id="edit" viewBox="0 0 24 24">
	<path d="M8.56078 20.2501L20.5608 8.25011L15.7501 3.43945L3.75012 15.4395V20.2501H8.56078ZM15.7501 5.56077L18.4395 8.25011L16.5001 10.1895L13.8108 7.50013L15.7501 5.56077ZM12.7501 8.56079L15.4395 11.2501L7.93946 18.7501H5.25012L5.25012 16.0608L12.7501 8.56079Z"/>
</symbol>

<symbol id="local" viewBox="0 0 24 24">
	<path d="M21 11V15.8C21 16.9201 21 17.4802 20.782 17.908C20.5903 18.2843 20.2843 18.5903 19.908 18.782C19.4802 19 18.9201 19 17.8 19H6.2C5.0799 19 4.51984 19 4.09202 18.782C3.71569 18.5903 3.40973 18.2843 3.21799 17.908C3 17.4802 3 16.9201 3 15.8V8.2C3 7.0799 3 6.51984 3.21799 6.09202C3.40973 5.71569 3.71569 5.40973 4.09202 5.21799C4.51984 5 5.0799 5 6.2 5H15M21 11L15 5M21 11H16.6C16.0399 11 15.7599 11 15.546 10.891C15.3578 10.7951 15.2049 10.6422 15.109 10.454C15 10.2401 15 9.96005 15 9.4V5" stroke="#000000" stroke-width="2" stroke-linecap="round" stroke-linejoin="round"/>
</symbol>

<symbol id="sdcard" viewBox="0 0 35 35">
	<path d="M28.56,34.75H6.44a4.2,4.2,0,0,1-4.19-4.19V4.44A4.194,4.194,0,0,1,6.44.25H23a4.749,4.749,0,0,1,3.648,1.707l5.015,6.056A4.764,4.764,0,0,1,32.75,11.04V15.7a1.25,1.25,0,1,1-2.5,0V11.04a2.227,2.227,0,0,0-.514-1.434L24.727,3.557A2.251,2.251,0,0,0,23,2.75H6.44A1.692,1.692,0,0,0,4.75,4.44V30.56a1.692,1.692,0,0,0,1.69,1.69H28.56a1.692,1.692,0,0,0,1.69-1.69V22.19a1.25,1.25,0,1,1,2.5,0v8.37A4.2,4.2,0,0,1,28.56,34.75Z"/>
	<path d="M22.12,9.43H8.444a1.25,1.25,0,0,1-1.25-1.25V1.5A1.25,1.25,0,0,1,8.444.25H22.12A1.25,1.25,0,0,1,23.37,1.5V8.18A1.25,1.25,0,0,1,22.12,9.43ZM9.694,6.93H20.87V2.75H9.694Z"/>
	<path d="M13.2,8.445a1.25,1.25,0,0,1-1.25-1.25V1.85a1.25,1.25,0,1,1,2.5,0V7.2A1.25,1.25,0,0,1,13.2,8.445Z"/>
	<path d="M17.5,8.445a1.249,1.249,0,0,1-1.25-1.25V1.85a1.25,1.25,0,0,1,2.5,0V7.2A1.25,1.25,0,0,1,17.5,8.445Z"/>
	<path d="M31.5,23.44H28.24a1.25,1.25,0,0,1-1.25-1.25V15.7a1.25,1.25,0,0,1,1.25-1.25H31.5a1.25,1.25,0,0,1,0,2.5H29.49v3.99H31.5a1.25,1.25,0,0,1,0,2.5Z"/>
</symbol>

<symbol id="usbstick" viewBox="0 0 35 35">
	<path d="M24.826,11.526a1.25,1.25,0,0,1-1.25-1.25V4.351c0-.916-.515-1.6-.975-1.6H12.407c-.464,0-.983.685-.983,1.6v5.925a1.25,1.25,0,0,1-2.5,0V4.351c0-2.261,1.562-4.1,3.483-4.1H22.6c1.916,0,3.475,1.84,3.475,4.1v5.925A1.25,1.25,0,0,1,24.826,11.526Z"/>
	<path d="M24.9,34.75H10.1a3.226,3.226,0,0,1-3.234-3.211V13.458A3.227,3.227,0,0,1,10.1,10.247H24.9a3.226,3.226,0,0,1,3.233,3.211V31.539A3.226,3.226,0,0,1,24.9,34.75Zm-14.807-22a.724.724,0,0,0-.734.711V31.539a.723.723,0,0,0,.734.711H24.9a.723.723,0,0,0,.733-.711V13.458a.724.724,0,0,0-.733-.711Z"/>
	<path d="M15.173,7.928a1.249,1.249,0,0,1-1.25-1.25v-.64a1.25,1.25,0,1,1,2.5,0v.64A1.25,1.25,0,0,1,15.173,7.928Z"/>
	<path d="M19.827,7.928a1.25,1.25,0,0,1-1.25-1.25v-.64a1.25,1.25,0,0,1,2.5,0v.64A1.249,1.249,0,0,1,19.827,7.928Z"/><path d="M21.078,27.544H13.922a1.25,1.25,0,0,1,0-2.5h7.156a1.25,1.25,0,0,1,0,2.5Z"/>
</symbol>

<symbol id="sync" enable-background="new 0 0 32 32" viewBox="0 0 32 32">
	<path d="M16 20c1.878 0 3.637-.73 4.951-2.056.389-.393.386-1.025-.006-1.414-.394-.39-1.025-.387-1.415.006C18.595 17.48 17.341 18 16 18c-2.415 0-4.435-1.721-4.899-4H12c.552 0 1-.447 1-1s-.448-1-1-1h-2c-.552 0-1 .447-1 1C9 16.859 12.14 20 16 20zM12.47 9.464C13.405 8.52 14.659 8 16 8c2.415 0 4.435 1.721 4.899 4H20c-.552 0-1 .447-1 1s.448 1 1 1h2c.552 0 1-.447 1-1 0-3.859-3.14-7-7-7-1.878 0-3.637.73-4.951 2.056-.389.393-.386 1.025.006 1.414C11.448 9.858 12.081 9.854 12.47 9.464zM30 22H20c-.552 0-1 .447-1 1s.448 1 1 1h9c0 1.103-.897 2-2 2H5c-1.103 0-2-.897-2-2h9c.552 0 1-.447 1-1s-.448-1-1-1H2c-.552 0-1 .447-1 1v1c0 2.206 1.794 4 4 4h22c2.206 0 4-1.794 4-4v-1C31 22.447 30.552 22 30 22zM24 8h3c.551 0 1 .448 1 1v11c0 .553.448 1 1 1s1-.447 1-1V9c0-1.654-1.346-3-3-3h-3c-.552 0-1 .447-1 1S23.448 8 24 8zM3 21c.552 0 1-.447 1-1V9c0-.552.449-1 1-1h3c.552 0 1-.447 1-1S8.552 6 8 6H5C3.346 6 2 7.346 2 9v11C2 20.553 2.448 21 3 21z"/>
</symbol>

<symbol id="premium" viewBox="0 -5.47 56.254 56.254">
	<path d="M494.211,354.161l1.174-1.366H482.552L469.8,367.5h12.94Zm-8.4,13.336H510.05l-6.589-7.664-5.528-6.429-8.354,9.713Zm-15.856,2.329,24.1,25.356L482.53,369.826Zm40.824,0h-2.1l-8.829,0H485.083l12.774,28.1.082.178,12.17-26.8Zm-8.94,25.322,24.057-25.32H513.337Zm24.215-27.65L513.3,352.8H500.478l12.642,14.7Z" transform="translate(-469.802 -352.795)"/>
</symbol>

<symbol id="reloadsettings" viewBox="0 0 48 48">
	<path d="M33,25V23l-3.3-.8a4.2,4.2,0,0,0-.4-1l1.8-2.9-1.4-1.4-2.9,1.8-1-.4L25,15H23l-.8,3.3-1,.4-2.9-1.8-1.4,1.4,1.8,2.9a4.2,4.2,0,0,0-.4,1L15,23v2l3.3.8a4.2,4.2,0,0,0,.4,1l-1.8,2.9,1.4,1.4,2.9-1.8,1,.4L23,33h2l.8-3.3,1-.4,2.9,1.8,1.4-1.4-1.8-2.9a4.2,4.2,0,0,0,.4-1Zm-9,1a2,2,0,1,1,2-2A2,2,0,0,1,24,26Z"/>
	<path d="M44,14V4.1A2.1,2.1,0,0,0,42.3,2,2,2,0,0,0,40,4V8.9a22,22,0,1,0,3.7,24.8,2,2,0,0,0-.5-2.6,2,2,0,0,0-3,.7A17.8,17.8,0,0,1,24,42,18,18,0,1,1,37.4,12H32.1A2.1,2.1,0,0,0,30,13.7,2,2,0,0,0,32,16H42A2,2,0,0,0,44,14Z"/>
</symbol>

<symbol id="skull" viewBox="0 0 48 48">
	<path d="M42,19.9a18,18,0,0,0-36,0A20.5,20.5,0,0,0,8.8,30a5,5,0,0,0,3.1,9h1.5l.7,5.3a2,2,0,0,0,2,1.7H31.9a2,2,0,0,0,2-1.7l.7-5.3h.5a5.1,5.1,0,0,0,3.8-8.4A20.7,20.7,0,0,0,42,19.9ZM34.2,31.7A2.1,2.1,0,0,0,35.5,33a1.2,1.2,0,0,1,.6,1,1,1,0,0,1-1,1H32.8a1.9,1.9,0,0,0-1.9,1.7L30.2,42H17.8l-.7-5.3A1.9,1.9,0,0,0,15.2,35H11.9a1.1,1.1,0,0,1-1.1-1,1,1,0,0,1,1-1,2.3,2.3,0,0,0,1.8-1.2,2.1,2.1,0,0,0-.2-2A17.2,17.2,0,0,1,10,19.9a14,14,0,0,1,28,0,17.1,17.1,0,0,1-3.5,10A2,2,0,0,0,34.2,31.7Z"/>
	<path d="M22,21.9s-6,.1-9-.8v1.4a4.5,4.5,0,0,0,9,0Z"/>
	<path d="M35,21.1c-3,.9-9,.8-9,.8v.6a4.5,4.5,0,0,0,9,0Z"/>
	<path d="M25.7,29a1,1,0,0,0-.9,1.2l.4,2.9a1,1,0,0,0,1.1.9,1,1,0,0,0,.9-1.2l-.4-2.9A1,1,0,0,0,25.7,29Z"/>
	<path d="M22.3,29a1,1,0,0,0-1.1.9l-.4,2.9a1,1,0,0,0,.9,1.2,1,1,0,0,0,1.1-.9l.4-2.9A1,1,0,0,0,22.3,29Z"/>
</symbol>

</svg>