<svg viewBox="0 0 1024 1024" version="1.1" xmlns="http://www.w3.org/2000/svg" fill="white"><path d="M202.632533 214.912c149.8624-34.491733 306.5088-29.3888 454.357333 15.2832 8.746667 2.6368 20.1216-2.6368 22.801067-10.734933 2.670933-8.106667-3.754667-19.182933-12.928-21.9392-153.557333-46.395733-316.245333-51.6864-471.8848-15.872-2.875733-12.475733-5.742933-24.951467-8.610133-37.4272-1.169067-5.034667-3.319467-9.344-9.2416-9.984-5.9136-0.631467-9.531733 1.390933-12.791467 5.9904-15.189333 21.435733-29.243733 43.229867-42.1376 65.271467-3.771733 6.468267-1.2032 14.1568 5.512533 17.245867 22.9376 10.581333 45.0048 22.050133 66.141867 34.312533 4.5312 2.628267 8.106667 2.875733 12.398933-0.1792 4.283733-3.054933 4.232533-7.816533 3.072-12.859733C207.104 234.308267 204.868267 224.6144 202.632533 214.912z"  /><path d="M820.48 465.0752c-7.082667-19.421867-27.3664-32.477867-50.500267-32.477867-6.613333 0-13.013333 1.1008-19.003733 3.285333-3.2512 1.186133-11.136 5.333333-18.679467 11.076267-9.6-21.188267-30.933333-35.131733-54.434133-35.131733-6.9632 0-13.832533 1.211733-20.437333 3.6096-12.936533 4.7104-23.620267 13.525333-30.651733 25.147733-14.848-18.944-39.483733-26.8544-62.429867-18.5088-14.984533 5.4528-26.6496 16.392533-32.8704 30.805333l-59.537067-147.0208c-9.6-26.368-32.1792-43.400533-57.514667-43.400533-6.869333 0-13.781333 1.245867-20.5312 3.703467-32.017067 11.665067-46.754133 46.3104-34.184533 80.8448l98.9696 254.7968c-5.1968 5.879467-12.680533 15.889067-21.102933 31.8976-29.1328 55.406933-8.5504 156.296533 67.566933 212.462933 54.417067 40.1664 104.584533 58.862933 157.883733 58.862933 31.232 0 63.752533-6.2976 99.370667-19.2768 101.282133-36.855467 116.667733-100.010667 123.733333-161.527467C892.9536 665.053867 823.4496 473.216 820.48 465.0752zM860.6976 721.314133c-6.664533 57.924267-19.319467 108.4672-107.050667 140.398933-32.785067 11.9296-62.4128 17.732267-90.615467 17.732267-48.213333 0-92.219733-16.6144-142.685867-53.8624-45.448533-33.536-91.4688-120.32-60.100267-179.959467 3.3792-6.442667 6.519467-11.656533 9.284267-15.829333l32.3328 83.208533c2.551467 6.596267 9.966933 9.847467 16.5632 7.296 6.5792-2.56 9.847467-9.975467 7.296-16.5632L383.684267 338.005333c-7.7312-21.239467 0.068267-40.891733 18.9696-47.7696 18.653867-6.775467 37.751467 3.822933 45.397333 24.823467l89.7536 221.610667c2.449067 6.084267 9.1136 9.335467 15.453867 7.483733 6.2976-1.834667 10.180267-8.149333 9.002667-14.600533l-7.048533-38.306133c-0.136533-0.708267-0.315733-1.390933-0.5632-2.065067-3.217067-8.832-3.080533-18.107733 0.349867-26.112 3.3792-7.901867 9.813333-13.909333 18.133333-16.930133 16.631467-6.058667 33.134933 3.319467 39.867733 21.8112l8.763733 24.046933 0 0c2.414933 6.638933 9.770667 10.069333 16.401067 7.645867s10.069333-9.762133 7.645867-16.401067l-0.017067-0.059733c-3.0976-8.5504-2.679467-17.792 1.152-26.043733 3.848533-8.260267 10.7008-14.532267 19.2512-17.646933 3.780267-1.373867 7.714133-2.065067 11.682133-2.065067 14.301867 0 27.1872 9.0368 32.085333 22.468267 0 0 17.245867 42.888533 21.034667 52.130133s9.7792 10.709333 16.1792 8.311467 8.686933-8.994133 5.802667-17.092267c-2.8672-8.106667-11.136-30.600533-11.136-30.600533 3.950933-4.096 12.253867-10.6496 17.92-12.706133 3.165867-1.152 6.596267-1.7408 10.231467-1.7408 12.219733 0 23.082667 6.434133 26.453333 15.6416C816.034133 527.6928 865.783467 677.1456 860.6976 721.314133z"/></svg>