<svg viewBox="0 0 1024 1024" version="1.1" xmlns="http://www.w3.org/2000/svg" fill="white"><path d="M154.717867 248.2176c-3.089067-6.715733-10.769067-9.2928-17.245867-5.512533-22.0416 12.9024-43.835733 26.948267-65.271467 42.1376-4.590933 3.259733-6.613333 6.877867-5.9904 12.791467 0.631467 5.922133 4.949333 8.072533 9.984 9.2416 12.475733 2.8672 24.951467 5.7344 37.4272 8.610133C77.7984 471.125333 83.089067 633.813333 129.493333 787.370667c2.747733 9.1648 13.824 15.598933 21.930667 12.936533 8.098133-2.679467 13.3632-14.045867 10.734933-22.801067-44.663467-147.848533-49.7664-304.494933-15.274667-454.365867 9.7024 2.235733 19.396267 4.462933 29.098667 6.698667 5.051733 1.160533 9.8048 1.220267 12.868267-3.072 3.0464-4.292267 2.807467-7.867733 0.1792-12.398933C176.768 293.230933 165.2992 271.163733 154.717867 248.2176z"  /><path d="M860.526933 422.852267c-40.951467-43.264-232.593067-113.339733-240.733867-116.3008-4.923733-1.792-10.129067-2.696533-15.4624-2.696533-22.050133 0-43.741867 15.633067-51.584 37.1712-1.186133 3.259733-3.063467 11.9552-3.515733 21.4272-5.256533-1.476267-10.666667-2.2272-16.128-2.2272-25.019733 0-47.573333 15.803733-56.132267 39.313067-4.7104 12.936533-4.829867 26.786133-0.443733 39.6288-24.8832-0.836267-45.994667 13.0816-54.306133 35.950933-5.461333 14.976-4.573867 30.941867 2.466133 44.970667L273.809067 471.210667c-8.072533-2.935467-16.324267-4.4288-24.5248-4.4288-25.8816 0-47.368533 14.8224-56.064 38.698667-11.639467 32.017067 5.4272 65.578667 39.970133 78.148267l258.7904 87.978667c1.1776 7.7568 4.036267 19.933867 10.88 36.667733 18.158933 44.347733 83.217067 90.231467 160.64 90.231467 15.351467 0 30.6688-1.826133 45.5424-5.418667 102.382933-24.712533 160.904533-76.032 195.694933-171.613867C941.5936 520.200533 903.099733 467.822933 860.526933 422.852267zM880.682667 612.7104c-31.914667 87.688533-83.3792 132.744533-177.646933 155.4944-12.910933 3.114667-26.205867 4.701867-39.534933 4.701867-65.792 0-122.3168-38.5792-136.951467-74.333867-2.756267-6.7328-4.744533-12.501333-6.161067-17.297067l84.522667 28.7232c6.690133 2.261333 13.960533-1.3056 16.2304-8.004267s-1.297067-13.960533-8.004267-16.238933L241.672533 559.470933c-21.239467-7.722667-31.274667-26.333867-24.3968-45.2352 6.7072-18.423467 26.077867-26.837333 48.213333-18.824533l227.438933 73.7024c6.2208 2.013867 13.0048-1.006933 15.658667-7.0144 2.645333-6.016 0.3072-13.047467-5.4016-16.298667l-33.877333-19.217067c-0.622933-0.349867-1.271467-0.648533-1.9456-0.887467-8.832-3.208533-15.854933-9.258667-19.780267-17.032533-3.8656-7.671467-4.334933-16.469333-1.314133-24.7808 4.437333-12.168533 14.6688-19.1488 28.0832-19.1488 4.693333 0 9.489067 0.878933 14.267733 2.619733l23.995733 8.7296c0.017067 0.008533 0.042667 0.008533 0.059733 0.017067 6.638933 2.423467 13.986133-1.006933 16.401067-7.6544 2.414933-6.638933-1.006933-13.986133-7.645867-16.401067-8.567467-3.114667-15.402667-9.386667-19.259733-17.646933-3.848533-8.2688-4.258133-17.536-1.143467-26.094933 4.8896-13.44 17.783467-22.4768 32.085333-22.4768 3.968 0 7.893333 0.699733 11.6736 2.0736l52.113067 18.9696c6.6048 2.4064 13.986133-0.9984 16.401067-7.645867 2.414933-6.647467-1.006933-13.994667-7.645867-16.4096l-30.6176-11.144533c-0.597333-5.6576-0.273067-16.2304 1.774933-21.888 5.0176-13.755733 21.973333-23.6288 34.235733-19.165867 53.853867 19.601067 200.32 77.5424 230.903467 109.8496C882.0224 482.798933 912.605867 524.9792 880.682667 612.7104z"/></svg>